<?xml version="1.0" encoding="UTF-8"?>
<svg width="440.13" height="110.69" version="1.1" viewBox="0 0 440.12991 110.68796" xmlns="http://www.w3.org/2000/svg" xmlns:cc="http://creativecommons.org/ns#" xmlns:dc="http://purl.org/dc/elements/1.1/" xmlns:rdf="http://www.w3.org/1999/02/22-rdf-syntax-ns#">
<metadata>
<rdf:RDF>
<cc:Work rdf:about="">
<dc:format>image/svg+xml</dc:format>
<dc:type rdf:resource="http://purl.org/dc/dcmitype/StillImage"/>
<dc:title/>
</cc:Work>
</rdf:RDF>
</metadata>
<g transform="translate(-43.884 -136.39)">
<path d="m83.877 160.87c0-1.6251 3.4318-2.8353 5.6387-1.9884 2.3957 0.9193 0.92019 2.7874-2.4657 3.1218-2.2462 0.22183-3.173-0.10919-3.173-1.1334z" fill="#ffd300"/>
<path d="m76.877 160.76c0-1.021 0.90282-1.5696 2.5833-1.5696 3.1327 0 2.7898 2.3485-0.41166 2.8196-1.4422 0.21222-2.1717-0.20766-2.1717-1.25z" fill="#bacb31"/>
<path d="m71.095 162.03c0.24641-0.74002 1.2501-1.501 2.2303-1.691 1.14-0.221 1.6208 0.13937 1.3343 1-0.24642 0.74002-1.2501 1.501-2.2303 1.691-1.14 0.221-1.6208-0.13937-1.3343-1z" fill="#ffd300"/>
<path d="m93.591 163.57c-0.39285-0.39285-0.71426-1.3401-0.71426-2.1051 0-1.0178 1.1398-1.3084 4.25-1.0833 2.9744 0.21521 4.25 0.7577 4.25 1.8075 0 1.5877-6.4372 2.7294-7.7857 1.3809z" fill="#bacb31"/>
<path d="m65.877 163.76c0-0.7489 0.675-1.6206 1.5-1.9372 0.88074-0.33798 1.5-0.0135 1.5 0.78602 0 0.74889-0.675 1.6206-1.5 1.9372-0.88074 0.33797-1.5 0.0135-1.5-0.78602z" fill="#e73f97"/>
<path d="m61.095 167.03c0.24641-0.74002 1.2501-1.501 2.2303-1.691 1.14-0.221 1.6208 0.13937 1.3343 1-0.24642 0.74002-1.2501 1.501-2.2303 1.691-1.14 0.221-1.6208-0.13937-1.3343-1z" fill="#bacb31"/>
<path d="m75.227 167.66c-0.71219-1.8559 1.2935-3.6166 3.6502-3.2043 0.825 0.14434 1.5 1.1563 1.5 2.2488 0 2.5686-4.23 3.3534-5.1502 0.95551z" fill="#bacb31"/>
<path d="m67.35 169.15c-0.79421-1.2851 1.2924-3.9562 3.0905-3.9562 2.2729 0 2.8958 2.528 0.96944 3.9366-2.2164 1.6207-3.2033 1.4056-4.0599 0.0196z" fill="#bacb31"/>
<path d="m115.21 168.65c-1.1014 3.4048-11.491 2.9576-13.295-0.57229-1.3413-2.6241 3.5294-4.6646 8.4318-3.5324 3.891 0.89864 5.4693 2.2308 4.8631 4.1046z" fill="#00a2df"/>
<path d="m85.053 172.13c-2.7142-1.0882-2.6054-4.235 0.16482-4.7684 5.2586-1.0127 9.3176 4.0925 4.7252 4.7919-2.1465 0.32689-0.65604 0.65872-4.0352 0.19029z" fill="#e73f97"/>
<path d="m55.877 172.31c0-0.48266 0.69407-1.4536 1.5424-2.1576 1.7592-1.46 4.1586 0.092 3.0115 1.948-0.80042 1.2951-4.5538 1.4678-4.5538 0.20958z" fill="#00a2df"/>
<path d="m62.475 176.45c-1.2452-1.2452-0.52511-4.2329 1.249-5.1824 2.4591-1.3161 4.4268 0.53826 3.1342 2.9536-1.0266 1.9183-3.4576 3.1545-4.3832 2.2289z" fill="#e73f97"/>
<path d="m69.923 178.74c-1.9006-2.2901-0.82526-5.9027 2.1852-7.3411 3.2349-1.5456 6.272-0.35573 7.2915 2.8566 1.4056 4.4286-6.4414 8.1418-9.4767 4.4844z" fill="#e73f97"/>
<path d="m52.036 178.64c0.41041-2.0876 3.4406-4.1815 4.5075-3.1147s-1.027 4.0971-3.1147 4.5075c-1.1972 0.23537-1.6282-0.19558-1.3928-1.3928z" fill="#ffd300"/>
<path d="m90.157 184.17c-2.6857-1.0807-3.997-5.4109-2.2691-7.4929 2.3179-2.7929 7.9331-1.329 10.046 2.6191 0.87445 1.6339 0.88611 2.8843-0.48961 4.4044-1.8739 2.0707-3.8102 1.8684-7.2873 0.46935z" fill="#00a2df"/>
<path d="m117.64 184.77c-5.9286-2.1159-8.7591-4.3758-8.7591-6.9931 0-2.7337 1.6447-3.5839 6.9326-3.5839 10.501 0 19.84 8.235 12.502 11.025-3.3861 1.2874-6.1377 1.172-10.676-0.44768z" fill="#e73f97"/>
<path d="m59.578 186.56c-1.4681-1.4681-0.6106-5.318 1.5164-6.8078 1.986-1.3911 3.089-1.3942 4.4528-0.0305 1.3638 1.3638 1.2211 2.234-0.07323 4.4532-1.5274 2.7213-4.5805 3.7005-5.8959 2.3851z" fill="#00a2df"/>
<path d="m47.508 190.49c-1.3164-1.3164-0.54427-4.0314 1.763-6.199 2.7294-2.5641 4.1662-1.4694 3.1878 2.4289-0.62012 2.4708-3.8163 4.9047-4.9508 3.7702z" fill="#ffd300"/>
<path d="m64.544 197.52c-1.1296-1.1296 0.04713-7.1513 1.3169-8.421 2.7963-2.7963 7.0165-1.4061 7.0165 2.5652 0 4.4962-5.6927 8.4964-8.3333 5.8558z" fill="#e73f97"/>
<path d="m79.874 194.66c-2.4153-5.17-1.6551-10.525 1.5353-10.816 5.4574-0.49686 11.23 12.634 7.2318 16.449-2.1099 2.0129-6.5182-0.81984-8.7671-5.6336z" fill="#ffd300"/>
<path d="m44.544 204.52c-2.477-2.477 2.5416-11.333 6.4222-11.333 2.8849 0 2.4934 5.1546-0.67779 8.9233-2.5169 2.9912-4.3812 3.7733-5.7444 2.41z" fill="#00a2df"/>
<path d="m120.06 210.12c-10.05-5.0218-16.275-13.959-12.573-18.049 6.3324-6.9973 31.394 6.1717 31.394 16.496 0 5.4479-9.4636 6.2286-18.821 1.5528z" fill="#ffd300"/>
<path d="m448.88 153.69c-12.158 0-15.723 1.372-24.289 9.3438-7.222 6.7212-10.71 14.55-10.711 24.041-9.9e-4 9.1322 1.1605 13.136 5.8398 20.139 3.7123 5.5552 11.86 11.922 17.66 13.801 1.65 0.53437 12.818 1.0181 24.818 1.0742l21.818 0.10156-0.31836-22.25c-0.31298-21.848-0.36645-22.34-2.9688-27.27-3.0811-5.836-10.675-13.285-16.959-16.637-3.8046-2.0294-5.795-2.3438-14.891-2.3438zm-0.79297 13.799c4.8594-0.0612 11.133 2.4269 14.566 5.9746 5.1538 5.325 6.2266 9.2309 6.2266 22.695v12.031h-11.805c-10.703 0-12.289-0.2411-17.014-2.5957-11.57-5.7654-14.559-21.212-5.9922-30.969 3.5837-4.0816 6.8752-5.9812 12.035-6.9492 0.6241-0.11708 1.2882-0.17876 1.9824-0.1875z" fill="#bacb31"/>
<path d="m385.38 220.6c-9.192-3.2779-18.925-13.473-21.727-22.758-0.87852-2.9111-1.2573-12.701-1.2636-32.657l-9e-3 -28.5 2.5-0.27059c3.3164-0.35896 8.5411 2.9697 11.005 7.0114 1.8227 2.9894 1.9874 5.0703 1.9909 25.143 4e-3 24.71 0.63619 28.248 6.0037 33.616 4.2267 4.2267 9.5216 6 17.916 6 9.3272 0 14.642 3.4996 15.758 10.376l0.58809 3.624-14.381-0.0789c-9.7349-0.0534-15.673-0.53977-18.381-1.5054z" fill="#bacb31"/>
<path d="m320.57 153.23c-3.815 0.0273-7.4537 0.49395-10.057 1.4219-9.7926 3.4909-19.991 13.923-22.516 23.033-1.56 5.6289-1.3874 16.491 0.33985 21.387 3.3001 9.3535 11.133 17.35 20.871 21.309 3.4583 1.4056 7.8762 1.7037 25.92 1.75l21.75 0.0547-2e-3 -21.25v-21.25l-2.8418-6.0039c-3.6293-7.6716-12.076-15.574-19.697-18.426-3.6648-1.3712-8.8625-2.0605-13.768-2.0254zm0.85742 14.244c5.4873-0.13911 10.979 2.2705 15.248 7.1328 4.1867 4.7684 5.1903 9.082 5.1973 22.328l6e-3 11.25h-11.887c-11.059 0-12.256-0.19253-17.215-2.7832-4.3147-2.254-5.8612-3.8005-8.1152-8.1152-4.7076-9.0114-3.0315-18.166 4.5449-24.818 3.686-3.2364 7.9528-4.8859 12.221-4.9941z" fill="#bacb31"/>
<path d="m250.64 220.68c-9.4947-3.4876-18.235-12.37-21.324-21.672-2.3928-7.2041-1.6464-19.677 1.5619-26.101 3.0806-6.1682 9.3574-12.489 16.125-16.237 5.2233-2.893 5.8185-2.9864 21.125-3.3147 11.159-0.23938 15.75-0.0114 15.75 0.78212 0 2.3538-2.8506 7.6556-5.3606 9.9701-2.218 2.0452-4.041 2.522-11.924 3.1182-10.321 0.78061-14.108 2.2708-18.248 7.1815-6.1945 7.3465-7.039 14.55-2.6832 22.887 3.881 7.429 10.427 10.897 20.58 10.902 9.9682 5e-3 15.265 3.4736 17.177 11.246l0.67613 2.75-14.858-0.0705c-9.9526-0.0472-16.092-0.52372-18.596-1.4433zm2.9843-27.471c-3.4558-2.7183-3.7638-7.7839-0.64511-10.611 1.812-1.6423 4.0183-1.9499 16.002-2.2306 15.787-0.36981 16.554 9e-3 13.18 6.509-3.2992 6.3573-6.1776 7.7706-16.609 8.1547-8.1897 0.30157-9.4791 0.10457-11.929-1.8226z" fill="#bacb31"/>
<path d="m47.222 223.65c-1.2431-3.2394 0.37627-11.439 3.0601-15.494 2.2101-3.3396 3.196-4.0289 5.3992-3.7746 2.3595 0.27238 2.7364 0.80962 3.0245 4.3112 0.649 7.8867-3.7532 16.5-8.4331 16.5-1.3523 0-2.7251-0.69398-3.0506-1.5422z" fill="#e73f97"/>
<path d="m187.78 152.49c-8.4246-9e-3 -11.139 1.559-15.067 3.494-27.151 13.375-27.355 49.977-0.35351 63.27 5.9107 2.9098 7.2455 3.1505 20.316 3.668l13.99 0.55469 0.61328 3.8301c0.75458 4.7189 5.682 10.554 9.9492 11.783 1.7316 0.49894 3.5984 0.79993 4.1484 0.66797 0.63903-0.15333 1-11.038 1-30.154l-0.0346-30.672-3.2076-5.8695c-3.6337-7.4268-8.6446-12.47-16.473-16.578-4.7478-2.4918-5.9003-3.984-14.882-3.994zm-0.77988 15.297c6.2188-0.077 12.512 2.8265 16.613 8.7383 2.6423 3.8085 2.7766 4.5905 3.0879 17.822l0.32617 13.84-11.326-0.043c-12.584-0.0488-17.467-1.2796-21.893-5.5195-6.7967-6.5116-8.0894-17.646-2.9844-25.695 3.8113-6.0098 9.957-9.0656 16.176-9.1426z" fill="#e73f97"/>
<path d="m65.601 244.44c-2.7576-3.0471-3.9667-7.528-4.013-14.872-0.083-13.155 6.8076-21.994 12.775-16.388 6.208 5.8321 6.1016 24.284-0.18014 31.226-2.0644 2.2811-6.533 2.2992-8.5823 0.0348z" fill="#ffd300"/>
<path d="m102.82 244.37c-13.584-8.6145-20.033-32.995-9.845-37.215 6.0125-2.4905 16.358 5.6137 21.752 17.039 3.6349 7.7 3.7819 18.258 0.29361 21.086-3.2893 2.6666-6.9967 2.39-12.2-0.90998z" fill="#e73f97"/>
</g>
</svg>
